<?xml version="1.0" encoding="utf-8"?>
<!-- Generator: Adobe Illustrator 15.1.0, SVG Export Plug-In . SVG Version: 6.00 Build 0)  -->
<!DOCTYPE svg PUBLIC "-//W3C//DTD SVG 1.1//EN" "http://www.w3.org/Graphics/SVG/1.1/DTD/svg11.dtd">
<svg version="1.1" id="Layer_1" xmlns="http://www.w3.org/2000/svg" xmlns:xlink="http://www.w3.org/1999/xlink" x="0px" y="0px"
	 width="1080px" height="1080px" viewBox="0 0 1080 1080" enable-background="new 0 0 1080 1080" xml:space="preserve">
<path fill="#333333" d="M-1806.403,413.842c14.526-18.717,23.044-41.311,24.632-65.341l16.201-245.182
	c0.402-6.098-3.085-11.787-8.702-14.194c-0.027-0.011-2.79-1.605-3.641-4.223c-1.024-3.154,0.363-8.167,3.908-14.115
	c0.719-1.206,1.829-2.545,2.714-3.575c2.521-2.935,5.708-8.008,6.569-15.515c0.757-6.594-0.909-13.257-4.554-18.842h82.325
	c-3.645,5.584-5.311,12.247-4.554,18.841c0.861,7.508,4.047,12.582,6.568,15.514c0.887,1.034,2,2.375,2.715,3.575
	c3.482,5.843,4.887,10.8,3.957,13.959c-0.756,2.568-3.236,4.095-3.864,4.446c-5.886,2.249-8.943,7.813-8.527,14.129l16.201,245.182
	c1.588,24.028,10.105,46.622,24.632,65.341c29.653,38.207,29.983,61.286,29.749,65.525c-0.235,4.197-0.265,8.27-0.265,11.699
	v544.494c0,2.71-1.573,5.11-4.01,6.13c-33.421,13.891-70.122,15.78-88.951,15.65c-9.832-0.061-19.798-0.061-29.628,0
	c-18.867,0.119-55.53-1.76-88.95-15.65c-2.434-1.02-4.008-3.42-4.008-6.13V491.065c0-3.423-0.032-7.49-0.264-11.699
	C-1836.386,475.128-1836.056,452.05-1806.403,413.842L-1806.403,413.842z M-1864.704,491.065v544.494
	c0,14.39,8.541,27.24,21.761,32.74c38.117,15.851,79.111,17.97,100.196,17.86c9.71-0.061,19.557-0.061,29.267,0
	c0.574,0,1.161,0,1.764,0c21.529,0,61.356-2.451,98.434-17.86c13.22-5.5,21.761-18.351,21.761-32.74V491.065
	c0-3.035,0.027-6.609,0.22-10.104c0.602-10.865-1.677-40.877-35.755-84.787c-10.989-14.161-17.435-31.303-18.643-49.574v0.001
	l-15.663-237.05c3.937-3.482,8.136-8.603,10.457-15.743c3.736-11.494,1.528-24.204-6.564-37.781
	c-1.751-2.934-3.749-5.416-5.351-7.298c-0.007-0.027-0.014-0.059-0.021-0.097c0.04-0.061,0.106-0.142,0.199-0.229
	c7.298-6.64,9.022-13.51,9.182-18.103c0.15-4.312-0.917-10.76-6.865-16.984c-5.635-5.897-13.722-9.28-22.187-9.28h-91.201
	c-8.464,0-16.55,3.381-22.185,9.279c-5.949,6.224-7.017,12.671-6.867,16.983c0.161,4.594,1.883,11.463,9.179,18.102
	c0.097,0.088,0.162,0.17,0.202,0.232c-0.007,0.037-0.013,0.069-0.021,0.096c-1.602,1.879-3.601,4.362-5.354,7.302
	c-8.089,13.572-10.297,26.282-6.561,37.777c2.32,7.14,6.518,12.261,10.457,15.744l-15.664,237.048
	c-1.208,18.273-7.655,35.415-18.643,49.574c-34.078,43.91-36.357,73.922-35.756,84.788
	C-1864.73,484.468-1864.704,488.038-1864.704,491.065L-1864.704,491.065z"/>
<g>
	<path fill="#FFFFFF" d="M489.557,525.397c12.698,5.279,26.441,6.027,33.74,5.98c3.5-0.021,7.005-0.021,10.507,0
		c7.297,0.047,21.044-0.701,33.74-5.98c2.791-1.159,4.595-3.908,4.595-6.932V324.214c0-1.297,0.016-2.594,0.087-3.89
		c0.152-2.745-0.339-12.194-11.681-26.813c-4.576-5.894-7.229-13.051-7.722-20.498l-5.778-87.469c0,0,8.428-3.612,2.292-13.9
		c-0.423-0.712-0.944-1.363-1.483-1.992c-0.42-0.491-0.977-1.379-1.135-2.772c-0.19-1.654,0.498-3.27,1.73-4.391
		c1.242-1.132,2.576-3.063,0.567-5.163c-1.084-1.137-2.626-1.722-4.199-1.722h-16.267h-16.27c-1.57,0-3.111,0.584-4.199,1.722
		c-2.004,2.1-0.675,4.031,0.571,5.163c1.23,1.121,1.919,2.737,1.731,4.391c-0.162,1.393-0.715,2.281-1.135,2.772
		c-0.543,0.629-1.064,1.28-1.49,1.992c-6.127,10.288,2.298,13.9,2.298,13.9l-5.778,87.469c-0.493,7.446-3.147,14.604-7.72,20.498
		c-11.348,14.62-11.836,24.068-11.682,26.813c0.069,1.295,0.083,2.592,0.083,3.89v194.252
		C484.96,521.49,486.767,524.238,489.557,525.397L489.557,525.397z"/>
	<g>
		<g>
			<path fill="#FFFFFF" d="M378.193,651.359c0,13.764-4.154,24.104-12.457,31.021c-8.305,6.918-20.654,10.375-37.049,10.375h-30.035
				v-10.028h10.776v-60.335h-10.776v-10.028h30.567c16.467,0,28.746,3.11,36.837,9.335S378.193,637.811,378.193,651.359z
				 M364.964,651.895c0-6.83-1.201-12.396-3.602-16.699c-2.4-4.303-6.206-7.513-11.416-9.629
				c-5.211-2.114-12.083-3.174-20.619-3.174h-7.735v60.335h7.628c12.377,0,21.427-2.48,27.154-7.442
				C362.1,670.326,364.964,662.529,364.964,651.895z"/>
			<path fill="#FFFFFF" d="M447.01,667.522h-46.998c0.676,5.371,2.755,9.613,6.242,12.725c3.485,3.113,7.752,4.668,12.804,4.668
				c3.698,0,7.129-0.765,10.296-2.293c3.164-1.53,5.814-3.877,7.947-7.043l9.709,4.374c-3.058,4.767-7.067,8.368-12.029,10.803
				s-10.359,3.654-16.19,3.654c-6.048,0-11.417-1.263-16.111-3.786c-4.695-2.525-8.35-6.048-10.963-10.563
				c-2.615-4.516-3.922-9.603-3.922-15.258c0-5.618,1.289-10.688,3.868-15.205c2.578-4.514,6.109-8.044,10.589-10.588
				c4.482-2.541,9.424-3.814,14.83-3.814c5.904,0,11.052,1.308,15.445,3.92c4.392,2.614,7.85,6.351,10.375,11.204
				C445.427,655.174,446.797,660.907,447.01,667.522z M417.297,644.371c-4.161,0-7.808,1.398-10.937,4.188
				c-3.13,2.793-5.14,6.483-6.028,11.07h35.101c-1.032-4.587-3.219-8.277-6.562-11.07
				C425.53,645.77,421.671,644.371,417.297,644.371z"/>
			<path fill="#FFFFFF" d="M453.465,717.35c-2.632,0-4.855-0.179-6.668-0.533v-9.976c1.742,0.213,3.61,0.32,5.601,0.32
				c2.952,0,5.086-0.437,6.401-1.308c1.316-0.872,2.232-2.347,2.748-4.427c0.515-2.081,0.773-5.381,0.773-9.896v-44.973h-8.749
				v-9.868h19.791v51.266c0,7.503-0.381,13.17-1.146,16.992c-0.764,3.82-2.569,6.845-5.414,9.07
				C463.956,716.238,459.51,717.35,453.465,717.35z M474.003,617.806c0,1.814-0.658,3.379-1.974,4.694
				c-1.316,1.315-2.881,1.974-4.695,1.974c-1.813,0-3.36-0.658-4.641-1.974c-1.279-1.315-1.919-2.88-1.919-4.694
				c0-1.815,0.64-3.379,1.919-4.694c1.281-1.317,2.828-1.976,4.641-1.976c1.885,0,3.468,0.641,4.749,1.921
				C473.362,614.336,474.003,615.921,474.003,617.806z"/>
			<path fill="#FFFFFF" d="M534.552,656.483v26.457h9.387v9.815h-19.096v-6.881c-5.335,5.228-11.274,7.842-17.818,7.842
				c-3.45,0-6.607-0.801-9.469-2.399c-2.862-1.602-5.157-3.741-6.882-6.429c-1.726-2.686-2.587-5.663-2.587-8.935
				c0-3.522,0.951-6.66,2.854-9.418c1.902-2.755,4.473-4.879,7.709-6.375c3.236-1.493,6.49-2.241,9.763-2.241
				c5.476,0,10.58,1.602,15.311,4.802v-6.026c0-4.375-0.925-7.505-2.774-9.39c-1.85-1.885-4.89-2.827-9.122-2.827
				c-2.989,0-5.487,0.543-7.495,1.627c-2.011,1.087-3.672,2.73-4.988,4.934l-10.563-2.612c2.381-4.447,5.601-7.763,9.656-9.95
				c4.055-2.187,8.872-3.281,14.456-3.281c7.504,0,12.991,1.707,16.458,5.122C532.818,643.732,534.552,649.119,534.552,656.483z
				 M508.519,685.235c5.406,0,10.474-2.258,15.204-6.776v-6.561c-4.801-3.733-9.603-5.6-14.403-5.6
				c-2.917,0-5.434,0.914-7.549,2.746c-2.117,1.83-3.174,4.135-3.174,6.909c0,2.665,0.924,4.881,2.773,6.64
				C503.219,684.354,505.603,685.235,508.519,685.235z"/>
			<path fill="#FFFFFF" d="M635.059,633.116c0,3.77-0.838,7.094-2.508,9.974c-1.672,2.882-4.11,5.087-7.311,6.615
				c4.518,1.602,7.978,4.101,10.377,7.495c2.402,3.399,3.602,7.427,3.602,12.084c0,7.647-2.801,13.47-8.4,17.471
				c-5.604,4.001-13.989,6.001-25.154,6.001h-27.849v-10.028h9.923v-60.335h-9.923v-10.028h28.276
				c9.778,0,17.051,1.706,21.818,5.119C632.675,620.9,635.059,626.109,635.059,633.116z M623.054,633.755
				c0-3.771-1.334-6.605-3.999-8.507c-2.669-1.903-6.438-2.855-11.31-2.855h-7.949v23.472h8.055
				C617.986,645.864,623.054,641.829,623.054,633.755z M626.895,669.071c0-4.444-1.571-7.763-4.721-9.949
				c-3.146-2.188-8.028-3.281-14.642-3.281h-7.736v26.887h4.802c4.802,0,8.747-0.294,11.843-0.879
				c3.093-0.588,5.609-1.867,7.55-3.843C625.928,676.033,626.895,673.054,626.895,669.071z"/>
			<path fill="#FFFFFF" d="M667.545,670.245v12.695h12.218v9.815h-34.408v-9.815h11.255v-36.383h-11.255v-9.868h20.006v12.695
				c2.242-5.014,5.022-8.508,8.347-10.482c3.328-1.972,8.083-2.959,14.272-2.959h2.505v11.149h-2.399
				c-5.976,0-10.422,0.782-13.336,2.347c-2.917,1.565-4.847,3.931-5.789,7.096C668.018,659.701,667.545,664.27,667.545,670.245z"/>
			<path fill="#FFFFFF" d="M721.748,684.116c4.941,0,10.294-2.401,16.054-7.203v-30.355h-9.921v-9.868h20.965v46.251h9.604v9.815
				h-20.647v-6.455c-6.472,4.943-12.625,7.416-18.456,7.416c-5.264,0-9.148-1.564-11.658-4.693c-2.505-3.13-3.76-8.322-3.76-15.578
				v-26.888h-7.843v-9.868h18.886v39.05c0,2.88,0.524,4.998,1.574,6.348C717.595,683.441,719.328,684.116,721.748,684.116z"/>
		</g>
		<path fill-rule="evenodd" clip-rule="evenodd" fill="#FFFFFF" d="M406.274,626.332c0,0,6.397-14.145,19.87-15.156
			c13.473-1.009,10.442,16.764-4.714,15.959C406.274,626.332,406.274,626.332,406.274,626.332z"/>
		<path fill-rule="evenodd" clip-rule="evenodd" fill="#FFFFFF" d="M526.156,626.332c0,0-6.397-14.145-19.871-15.156
			c-13.472-1.009-10.441,16.764,4.715,15.959C526.156,626.332,526.156,626.332,526.156,626.332z"/>
	</g>
	<g>
		<rect x="422.458" y="565.628" fill-rule="evenodd" clip-rule="evenodd" fill="#FFFFFF" width="89.391" height="24.66"/>
		<rect x="545.254" y="565.628" fill-rule="evenodd" clip-rule="evenodd" fill="#FFFFFF" width="89.389" height="24.66"/>
	</g>
	<g>
		<g>
			<circle fill-rule="evenodd" clip-rule="evenodd" fill="#FFFFFF" cx="444.108" cy="425.734" r="13.415"/>
			<g>
				<path fill-rule="evenodd" clip-rule="evenodd" fill="#FFFFFF" d="M444.107,294.896c-12.798,44.622-6.918,96.162-6.918,102.388
					c0,6.227,6.918,8.647,6.918,8.647s6.918-2.421,6.918-8.647C451.026,391.058,456.906,339.518,444.107,294.896z"/>
				<path fill-rule="evenodd" clip-rule="evenodd" fill="#FFFFFF" d="M444.28,556.572c12.798-44.622,6.918-96.162,6.918-102.388
					c0-6.227-6.918-8.647-6.918-8.647s-6.918,2.421-6.918,8.647C437.361,460.411,431.481,511.951,444.28,556.572z"/>
			</g>
		</g>
		<g>
			<circle fill-rule="evenodd" clip-rule="evenodd" fill="#FFFFFF" cx="612.995" cy="425.734" r="13.416"/>
			<g>
				<path fill-rule="evenodd" clip-rule="evenodd" fill="#FFFFFF" d="M612.994,294.896c-12.799,44.622-6.917,96.162-6.917,102.388
					c0,6.227,6.917,8.647,6.917,8.647s6.918-2.421,6.918-8.647C619.912,391.058,625.794,339.518,612.994,294.896z"/>
				<path fill-rule="evenodd" clip-rule="evenodd" fill="#FFFFFF" d="M613.167,556.572c12.797-44.622,6.919-96.162,6.919-102.388
					c0-6.227-6.919-8.647-6.919-8.647s-6.92,2.421-6.92,8.647C606.247,460.411,600.369,511.951,613.167,556.572z"/>
			</g>
		</g>
	</g>
	<g>
		<path fill-rule="evenodd" clip-rule="evenodd" fill="#FFFFFF" d="M409.412,248.399v31.477c0,0,11.07-4.843,25.251-3.113
			c14.182,1.73,40.102,3.776,48.934-3.127c8.832-6.903,12.291-14.599,12.637-27.528L409.412,248.399z"/>
		<path fill-rule="evenodd" clip-rule="evenodd" fill="#FFFFFF" d="M647.689,248.399v31.477c0,0-11.07-4.843-25.252-3.113
			s-40.103,3.776-48.935-3.127c-8.831-6.903-12.291-14.599-12.636-27.528L647.689,248.399z"/>
	</g>
	<path fill-rule="evenodd" clip-rule="evenodd" fill="#FFFFFF" d="M528.551,560.837h-12.734c4.929,4.67,5.448,17.642,5.448,25.165
		s7.287,9.079,7.287,9.079s7.286-1.556,7.286-9.079s0.519-20.495,5.448-25.165H528.551z"/>
	<path fill-rule="evenodd" clip-rule="evenodd" fill="#FFFFFF" d="M499.219,847.214c5.892,2.793,13.365-1.847,18.729-10.823
		c5.365-8.975,6.032-7.102,6.19-6.046c0.16,1.056-0.164,3.393-1.267,5.563c-1.101,2.173-8.519,12.295-11.354,15.075
		c-2.832,2.778-4.577,9.469-2.317,10.571c2.258,1.103,8.689-3.374,9.583-9.781c0.894-6.406,4.98-13.277,6.36-13.638
		c1.38-0.358,1.38-0.358,1.38-0.358s1.368,6.747-2.292,14.785s-12.832,12.776-7.339,17.22c3.573,2.89,8.107,3.595,10.847,3.739
		l-0.002,0.046c0,0,0.888,0.058,2.251-0.04c0.11-0.008,0.185-0.012,0.185-0.012v-0.003c2.68-0.21,7.065-1.027,10.554-3.966
		c5.403-4.55-3.859-9.106-7.678-17.069c-3.814-7.966-2.58-14.739-2.58-14.739s0,0,1.387,0.332c1.386,0.333,5.608,7.123,6.625,13.509
		c1.019,6.385,7.538,10.74,9.775,9.591c2.237-1.146,0.36-7.799-2.525-10.523c-2.888-2.726-10.503-12.695-11.646-14.848
		c-1.147-2.148-1.517-4.479-1.38-5.537c0.14-1.059,0.77-2.945,6.313,5.922c5.537,8.869,13.101,13.363,18.934,10.452
		c5.837-2.912,0.239-12.716-11.739-17.268c-11.979-4.553-13.521-29.445-14.384-37.996c-0.864-8.554-3.914-12.674-3.914-12.674
		s-2.971,4.179-3.664,12.748c-0.695,8.567-1.747,33.484-13.634,38.271C498.73,834.504,493.327,844.417,499.219,847.214z"/>
	<g>
		<path fill-rule="evenodd" clip-rule="evenodd" fill="#FFFFFF" d="M410.069,468.69c-6.366,1.409-9.418,9.658-8.146,20.038
			c1.273,10.379-0.405,9.308-1.177,8.573c-0.774-0.735-1.952-2.779-2.416-5.171c-0.462-2.392-0.819-14.935-0.286-18.868
			c0.531-3.933-2.199-10.286-4.66-9.771c-2.46,0.516-4.79,8-1.563,13.606c3.225,5.605,4.218,13.537,3.349,14.669
			c-0.868,1.131-0.868,1.131-0.868,1.131s-5.221-4.488-7.266-13.081c-2.043-8.592,2.291-17.961-4.773-18.1
			c-4.595-0.09-8.608,2.136-10.859,3.705l-0.026-0.037c0,0-0.736,0.499-1.755,1.413c-0.079,0.073-0.136,0.124-0.136,0.124v0.001
			c-1.986,1.811-4.947,5.148-5.898,9.608c-1.474,6.909,8.636,4.822,16.539,8.767c7.9,3.947,11.083,10.053,11.083,10.053
			s0,0-1.299,0.587c-1.299,0.589-8.798-2.182-13.521-6.599c-4.725-4.416-12.542-3.854-13.604-1.575
			c-1.064,2.278,4.501,6.382,8.452,6.76c3.953,0.378,16.085,3.579,18.308,4.574c2.224,0.995,3.946,2.608,4.487,3.528
			c0.539,0.92,1.2,2.797-8.618-0.805c-9.818-3.602-18.545-2.508-21.367,3.371c-2.819,5.88,7.615,10.186,19.869,6.428
			c12.25-3.757,28.744,14.948,34.674,21.173c5.93,6.222,10.868,7.604,10.868,7.604s-0.219-5.125-4.929-12.315
			c-4.71-7.191-19.171-27.51-12.724-38.584S416.435,467.283,410.069,468.69z"/>
		<path fill-rule="evenodd" clip-rule="evenodd" fill="#FFFFFF" d="M647.034,468.69c6.364,1.409,9.417,9.658,8.144,20.038
			c-1.272,10.379,0.405,9.308,1.18,8.573c0.772-0.735,1.95-2.779,2.414-5.171c0.464-2.392,0.818-14.935,0.286-18.868
			c-0.531-3.933,2.198-10.286,4.659-9.771c2.461,0.516,4.789,8,1.562,13.606c-3.225,5.605-4.218,13.537-3.348,14.669
			c0.867,1.131,0.867,1.131,0.867,1.131s5.221-4.488,7.268-13.081c2.043-8.592-2.29-17.961,4.771-18.1
			c4.597-0.09,8.607,2.136,10.859,3.705l0.028-0.037c0,0,0.733,0.499,1.753,1.413c0.079,0.073,0.136,0.124,0.136,0.124v0.001
			c1.986,1.811,4.95,5.148,5.898,9.608c1.476,6.909-8.636,4.822-16.539,8.767c-7.9,3.947-11.082,10.053-11.082,10.053
			s0,0,1.301,0.587c1.298,0.589,8.797-2.182,13.519-6.599c4.727-4.416,12.542-3.854,13.604-1.575c1.065,2.278-4.5,6.382-8.452,6.76
			s-16.084,3.579-18.306,4.574c-2.226,0.995-3.948,2.608-4.487,3.528c-0.539,0.92-1.2,2.797,8.618-0.805
			c9.815-3.602,18.545-2.508,21.364,3.371c2.819,5.88-7.615,10.186-19.869,6.428c-12.25-3.757-28.743,14.948-34.674,21.173
			c-5.931,6.222-10.867,7.604-10.867,7.604s0.219-5.125,4.929-12.315c4.71-7.191,19.173-27.51,12.724-38.584
			C638.848,478.424,640.666,467.283,647.034,468.69z"/>
	</g>
	<g>
		<path fill-rule="evenodd" clip-rule="evenodd" fill="#FFFFFF" d="M414.938,590.473h-39.779c0,0-33.208,2.446-49.119-6.894
			c-15.911-9.339-17.294-25.304-5.534-27.007c11.761-1.702,11.415,6.253,13.49,10.75c2.076,4.498,10.861,13.951,19.786,15.45
			c8.925,1.5,19.485,2.039,10.054-1.69c-9.431-3.729-47.48-33.131-13.226-43.825c16.505-5.153,2.256,18.575,3.172,22.753
			c3.044,13.885,12.113,19.921,24.491,22.531s-5.533-2.561-10.723-18.92c-5.189-16.361,3.112-41.897,33.206-32.243
			c30.093,9.655,19.025,37.672,0.692,40.094s-20.475-17.626-9.466-19.01c11.009-1.383,13.964,4.062,13.964,7.547
			c0,3.486,10.723,0.048,8.647-10.329c-2.075-10.377-24.56-20.421-34.245-12.107c-13.613,11.685-8.994,31.822,5.534,37.703
			c14.528,5.882,26.634,3.46,30.439-3.112L414.938,590.473z"/>
		<path fill-rule="evenodd" clip-rule="evenodd" fill="#FFFFFF" d="M642.164,590.473h39.777c0,0,33.207,2.446,49.119-6.894
			c15.912-9.339,17.295-25.304,5.535-27.007c-11.761-1.702-11.414,6.253-13.49,10.75c-2.075,4.498-10.861,13.951-19.785,15.45
			c-8.926,1.5-19.485,2.039-10.055-1.69c9.431-3.729,47.481-33.131,13.225-43.825c-16.504-5.153-2.254,18.575-3.17,22.753
			c-3.044,13.885-12.114,19.921-24.492,22.531c-12.377,2.61,5.533-2.561,10.723-18.92c5.19-16.361-3.111-41.897-33.205-32.243
			c-30.094,9.655-19.025,37.672-0.691,40.094c18.332,2.422,20.475-17.626,9.465-19.01c-11.01-1.383-13.965,4.062-13.965,7.547
			c0,3.486-10.721,0.048-8.646-10.329c2.075-10.377,24.561-20.421,34.244-12.107c13.612,11.685,8.995,31.822-5.533,37.703
			c-14.527,5.882-26.636,3.46-30.44-3.112L642.164,590.473z"/>
	</g>
	<g>
		<path fill-rule="evenodd" clip-rule="evenodd" fill="#FFFFFF" d="M469.603,730.485h-39.778c0,0-33.207-2.446-49.119,6.893
			c-15.912,9.34-17.294,25.305-5.535,27.007c11.762,1.703,11.415-6.253,13.49-10.75c2.076-4.497,10.862-13.95,19.786-15.45
			c8.926-1.5,19.485-2.039,10.055,1.69s-47.481,33.132-13.225,43.825c16.504,5.152,2.254-18.573,3.17-22.753
			c3.044-13.886,12.114-19.921,24.492-22.531s-5.533,2.56-10.722,18.92c-5.191,16.36,3.111,41.897,33.205,32.242
			c30.094-9.656,19.025-37.672,0.691-40.094c-18.333-2.423-20.475,17.625-9.465,19.009c11.01,1.385,13.965-4.06,13.965-7.546
			c0-3.485,10.722-0.049,8.646,10.329c-2.075,10.377-24.561,20.422-34.245,12.107c-13.612-11.687-8.995-31.822,5.533-37.704
			s26.636-3.46,30.44,3.113L469.603,730.485z"/>
		<path fill-rule="evenodd" clip-rule="evenodd" fill="#FFFFFF" d="M587.5,730.485h39.777c0,0,33.207-2.446,49.119,6.893
			c15.912,9.34,17.295,25.305,5.535,27.007c-11.762,1.703-11.415-6.253-13.49-10.75s-10.861-13.95-19.785-15.45
			c-8.927-1.5-19.486-2.039-10.056,1.69s47.481,33.132,13.226,43.825c-16.505,5.152-2.254-18.573-3.17-22.753
			c-3.045-13.886-12.114-19.921-24.492-22.531s5.533,2.56,10.722,18.92c5.19,16.36-3.111,41.897-33.205,32.242
			c-30.094-9.656-19.025-37.672-0.69-40.094c18.332-2.423,20.475,17.625,9.465,19.009c-11.01,1.385-13.965-4.06-13.965-7.546
			c0-3.485-10.722-0.049-8.646,10.329c2.076,10.377,24.561,20.422,34.245,12.107c13.611-11.687,8.995-31.822-5.533-37.704
			s-26.636-3.46-30.44,3.113L587.5,730.485z"/>
	</g>
	<path fill-rule="evenodd" clip-rule="evenodd" fill="#FFFFFF" d="M543.08,727.546c0,8.024-6.505,14.528-14.529,14.528
		c-8.024,0-14.529-6.504-14.529-14.528c0-8.023,14.529-20.358,14.529-20.358S543.08,719.522,543.08,727.546z"/>
	<polygon fill-rule="evenodd" clip-rule="evenodd" fill="#FFFFFF" points="543.08,750.998 514.021,750.998 514.021,758.736 
		520.537,770.895 536.564,770.895 543.08,758.736 	"/>
	<g>
		<path fill-rule="evenodd" clip-rule="evenodd" fill="#FFFFFF" d="M510.273,761.316c-9.858,0.2-15.124,1.668-20.787,9.578
			c-5.663,7.911-3.34,28.357-4.896,34.064c-1.557,5.708-9.08,15.047-16.344,17.9c-0.352,0.138-0.665,0.237-0.975,0.333
			c0.897-2.682,1.15-5.957,1.15-8.764c0-5.874-4.762-10.637-10.637-10.637c-3.58,0-6.731,1.783-8.659,4.495
			c-0.034,0.041-0.069,0.069-0.104,0.111c-0.017,0.022-0.027,0.045-0.044,0.067c-0.008,0.012-0.016,0.026-0.025,0.038
			c-6.575,8.509,1.309,22.905,15.273,19.928c31.001-6.609,37.747-45.783,41.638-51.75c3.891-5.967,9.599-5.787,9.599-5.787
			L510.273,761.316z"/>
		<path fill-rule="evenodd" clip-rule="evenodd" fill="#FFFFFF" d="M546.828,761.316c9.858,0.2,15.124,1.668,20.787,9.578
			c5.662,7.911,3.34,28.357,4.896,34.064c1.557,5.708,9.08,15.047,16.344,17.9c0.353,0.138,0.665,0.237,0.975,0.333
			c-0.897-2.682-1.148-5.957-1.148-8.764c0-5.874,4.761-10.637,10.636-10.637c3.58,0,6.729,1.783,8.659,4.495
			c0.032,0.041,0.068,0.069,0.104,0.111c0.018,0.022,0.025,0.045,0.044,0.067c0.008,0.012,0.017,0.026,0.026,0.038
			c6.575,8.509-1.31,22.905-15.273,19.928c-31.002-6.609-37.747-45.783-41.639-51.75s-9.599-5.787-9.599-5.787L546.828,761.316z"/>
	</g>
	<g>
		<g>
			<circle fill-rule="evenodd" clip-rule="evenodd" fill="#FFFFFF" cx="491.053" cy="217.553" r="8.302"/>
			<circle fill-rule="evenodd" clip-rule="evenodd" fill="#FFFFFF" cx="501.603" cy="193.686" r="4.151"/>
			<circle fill-rule="evenodd" clip-rule="evenodd" fill="#FFFFFF" cx="482.751" cy="176.563" r="9.858"/>
		</g>
		<g>
			<circle fill-rule="evenodd" clip-rule="evenodd" fill="#FFFFFF" cx="571.476" cy="186.422" r="4.876"/>
			<circle fill-rule="evenodd" clip-rule="evenodd" fill="#FFFFFF" cx="571.476" cy="223.261" r="13.49"/>
			<circle fill-rule="evenodd" clip-rule="evenodd" fill="#FFFFFF" cx="563.174" cy="169.299" r="3.425"/>
		</g>
		<g>
			<circle fill-rule="evenodd" clip-rule="evenodd" fill="#FFFFFF" cx="578.606" cy="289.129" r="3.632"/>
			<circle fill-rule="evenodd" clip-rule="evenodd" fill="#FFFFFF" cx="471.31" cy="296.938" r="11.441"/>
			<circle fill-rule="evenodd" clip-rule="evenodd" fill="#FFFFFF" cx="467.159" cy="322.19" r="4.151"/>
			<circle fill-rule="evenodd" clip-rule="evenodd" fill="#FFFFFF" cx="593.083" cy="301.089" r="4.151"/>
		</g>
	</g>
</g>
</svg>
